<svg xmlns="http://www.w3.org/2000/svg" viewBox="0 0 200 200" role="img" aria-label="kirja">
  <!-- cover -->
  <rect x="18" y="46" width="164" height="116" rx="8" fill="#5b6cf5"/>
  <!-- left page -->
  <rect x="27" y="55" width="68" height="98" rx="3" fill="#fff5ec"/>
  <!-- right page -->
  <rect x="105" y="55" width="68" height="98" rx="3" fill="#fff5ec"/>
  <!-- spine -->
  <rect x="96" y="55" width="8" height="98" fill="#1c1640"/>
  <!-- text lines left -->
  <line x1="38" y1="78" x2="84" y2="78" stroke="#e8ebff" stroke-width="4" stroke-linecap="round"/>
  <line x1="38" y1="94" x2="84" y2="94" stroke="#e8ebff" stroke-width="4" stroke-linecap="round"/>
  <line x1="38" y1="110" x2="84" y2="110" stroke="#e8ebff" stroke-width="4" stroke-linecap="round"/>
  <line x1="38" y1="126" x2="74" y2="126" stroke="#e8ebff" stroke-width="4" stroke-linecap="round"/>
  <!-- text lines right -->
  <line x1="116" y1="78" x2="162" y2="78" stroke="#e8ebff" stroke-width="4" stroke-linecap="round"/>
  <line x1="116" y1="94" x2="162" y2="94" stroke="#e8ebff" stroke-width="4" stroke-linecap="round"/>
  <line x1="116" y1="110" x2="162" y2="110" stroke="#e8ebff" stroke-width="4" stroke-linecap="round"/>
  <line x1="116" y1="126" x2="152" y2="126" stroke="#e8ebff" stroke-width="4" stroke-linecap="round"/>
  <!-- bookmark -->
  <path d="M 90 30 L 110 30 L 110 70 L 100 60 L 90 70 Z" fill="#ff8c42"/>
  <!-- outline -->
  <rect x="18" y="46" width="164" height="116" rx="8" fill="none" stroke="#1c1640" stroke-width="4"/>
</svg>
