<svg xmlns="http://www.w3.org/2000/svg" viewBox="0 0 200 200" role="img" aria-label="lintu">
  <!-- tail feathers -->
  <path d="M 75 115 L 28 88 L 42 115 L 28 142 Z" fill="#ff8c42"/>
  <!-- body -->
  <ellipse cx="112" cy="118" rx="58" ry="44" fill="#3bb87f"/>
  <!-- belly -->
  <ellipse cx="102" cy="140" rx="34" ry="20" fill="#fff5ec"/>
  <!-- wing -->
  <path d="M 92 92 Q 138 84 150 122 Q 116 134 88 116 Z" fill="#5b6cf5"/>
  <!-- head -->
  <circle cx="156" cy="76" r="32" fill="#3bb87f"/>
  <!-- beak -->
  <path d="M 182 80 L 198 86 L 182 96 Z" fill="#ffd166"/>
  <!-- eye -->
  <circle cx="168" cy="68" r="10" fill="#ffffff"/>
  <circle cx="171" cy="68" r="5" fill="#1c1640"/>
  <!-- legs -->
  <line x1="98" y1="160" x2="94" y2="182" stroke="#1c1640" stroke-width="4" stroke-linecap="round"/>
  <line x1="124" y1="160" x2="128" y2="182" stroke="#1c1640" stroke-width="4" stroke-linecap="round"/>
  <!-- feet -->
  <path d="M 88 182 L 100 182 M 94 182 L 94 188" stroke="#1c1640" stroke-width="3" stroke-linecap="round" fill="none"/>
  <path d="M 122 182 L 134 182 M 128 182 L 128 188" stroke="#1c1640" stroke-width="3" stroke-linecap="round" fill="none"/>
</svg>
