<svg xmlns="http://www.w3.org/2000/svg" viewBox="0 0 200 200" role="img" aria-label="koti">
  <!-- roof -->
  <path d="M 30 95 L 100 30 L 170 95 Z" fill="#ff8c42"/>
  <!-- roof window -->
  <circle cx="100" cy="68" r="18" fill="#fff5ec"/>
  <!-- heart -->
  <path d="M 100 82
           C 93 75 85 68 85 60
           C 85 55 89.5 51 95 51
           C 98 51 100 53 100 56
           C 100 53 102 51 105 51
           C 110.5 51 115 55 115 60
           C 115 68 107 75 100 82 Z" fill="#ef4444"/>
  <!-- walls -->
  <rect x="45" y="95" width="110" height="80" fill="#5b6cf5"/>
  <!-- window -->
  <rect x="60" y="112" width="36" height="36" rx="4" fill="#f7f5ff"/>
  <line x1="78" y1="112" x2="78" y2="148" stroke="#5b6cf5" stroke-width="4"/>
  <line x1="60" y1="130" x2="96" y2="130" stroke="#5b6cf5" stroke-width="4"/>
  <!-- door -->
  <rect x="112" y="120" width="32" height="55" rx="4" fill="#1c1640"/>
  <circle cx="138" cy="148" r="3" fill="#ffd166"/>
</svg>
